PathFileType	4	(X/Y/Z)	1103211_Cal01.trc	
DataRate	CameraRate	NumFrames	NumMarkers	Units	OrigDataRate	OrigDataStartFrame	OrigNumFrames
128	128	4	46	mm	128	296	337
Frame#	Time    CLAV			RSHO			LSHO			C7			T10			RASI			LASI			RPSI			LPSI			LGTR			RGTR			LMFC			RMFC			LANK			RANK			LMMA			RMMA			LHEE			RHEE			LMT5			RMT5			LTOE			RTOE			RELB			RWRA			RWRB			RFIN			LELB			LWRB			LWRA			LFIN			RFM2			LFM2			LKNE			RKNE			RTP2			RTP3			RTA3			LTP2			LTP3			LBHD			RFHD			RBHD			LUPA			LFRA			RFRA
        X1	Y1	Z1	X3	Y3	Z3	X4	Y4	Z4	X5	Y5	Z5	X6	Y6	Z6	X8	Y8	Z8	X9	Y9	Z9	X10	Y10	Z10	X11	Y11	Z11	X12	Y12	Z12	X13	Y13	Z13	X16	Y16	Z16	X17	Y17	Z17	X22	Y22	Z22	X23	Y23	Z23	X24	Y24	Z24	X25	Y25	Z25	X26	Y26	Z26	X27	Y27	Z27	X28	Y28	Z28	X29	Y29	Z29	X30	Y30	Z30	X31	Y31	Z31	X32	Y32	Z32	X33	Y33	Z33	X34	Y34	Z34	X35	Y35	Z35	X36	Y36	Z36	X37	Y37	Z37	X38	Y38	Z38	X39	Y39	Z39	X44	Y44	Z44	X53	Y53	Z53	X58	Y58	Z58	X59	Y59	Z59	X61	Y61	Z61	X62	Y62	Z62	X65	Y65	Z65	X67	Y67	Z67	X68	Y68	Z68	X71	Y71	Z71	X72	Y72	Z72	X73	Y73	Z73	X74	Y74	Z74	X75	Y75	Z75	X77	Y77	Z77
295	0.98	187.74333	1374.72791	-48.39113	87.14067	1424.44666	88.64874	85.38791	1432.82056	-193.02162	47.83656	1429.41296	-47.25493	13.30533	1134.96948	-53.63704	177.18932	947.12939	60.01376	173.17499	953.19977	-167.35561	-3.33749	955.1427	-2.12437	-4.57088	954.04468	-100.22212	108.14592	868.89435	-219.07713	107.72055	857.91547	117.42166	63.09599	466.9577	-84.81111	65.77052	471.37152	-16.30183	57.40942	90.89159	-207.17888	55.91626	87.33543	108.6104	73.28488	98.66048	-121.42601	80.51637	92.80141	24.88721	-14.75089	59.76895	-159.38408	-15.90199	62.94972	60.17177	168.25482	30.70115	-243.70125	165.76862	40.90236	157.66357	212.94472	64.99002	-176.07277	214.52931	65.26434	91.04201	59.42049	1295.39685	346.23685	89.90808	1308.1344	591.29327	55.61156	1243.47046	585.15289	53.75482	1296.4574	666.02344	41.27623	1300.70959	-436.63269	35.21867	1261.25647	-685.84619	67.63632	1322.93726	-680.02307	28.94254	1317.48059	-759.29462	176.00273	717.66852	116.77782	165.5014	719.17853	-218.8069	77.86826	485.18259	-210.25587	88.74019	478.99271	108.30183	55.35402	268.93982	125.25273	54.68198	182.67726	114.33484	108.19521	232.77988	64.55957	65.65102	278.77286	-226.20711	62.3094	193.79926	-217.06197	71.87209	1607.85559	-129.54936	176.17635	1625.81445	37.49106	184.8271	1634.56506	-110.00417	61.51466	1393.14453	-293.41132	24.09594	1305.69836	-584.90533	43.20033	1291.72986	430.23267
296	0.98333	187.73009	1374.72449	-48.42342	87.13751	1424.44678	88.63213	85.383	1432.83057	-193.00612	47.84125	1429.42371	-47.25319	13.26466	1135.01636	-53.65233	177.18089	947.19263	59.94177	173.10309	953.22333	-167.41463	-3.36396	955.17902	-2.14738	-4.62514	954.09381	-100.23485	108.05693	868.93463	-219.05849	107.65915	857.94531	117.46178	63.06654	467.00577	-84.82829	65.7382	471.4212	-16.29762	57.41182	90.91206	-207.18486	55.90007	87.33612	108.63478	73.30534	98.72092	-121.45143	80.52666	92.82336	24.89368	-14.74564	59.79486	-159.36751	-15.87747	62.92307	60.09349	168.26773	30.73617	-243.69579	165.77599	40.95195	157.65582	212.95436	65.00897	-176.07954	214.5352	65.2887	91.04877	59.42023	1295.43762	346.23962	89.84547	1308.14612	591.32141	55.5759	1243.49304	585.17456	53.71443	1296.4884	666.01807	41.26579	1300.79272	-436.62799	35.18345	1261.26807	-685.78839	67.5354	1322.87854	-680.02802	28.87788	1317.46948	-759.26331	175.9612	717.70306	116.78214	165.40541	719.15485	-218.774	77.86368	485.21631	-210.22502	88.7451	479.02405	108.30746	55.31764	268.91376	125.36887	54.68851	182.69443	114.33118	108.19881	232.80934	64.56136	65.64574	278.79456	-226.21034	62.29155	193.82916	-217.09398	71.83466	1607.88818	-129.53947	176.23705	1625.86182	37.49202	184.76622	1634.57202	-110.00722	61.51611	1393.19092	-293.43964	24.0891	1305.72961	-584.87366	43.16207	1291.74353	430.24231
297	0.98667	187.73125	1374.76013	-48.43211	87.12244	1424.47412	88.66357	85.37003	1432.83594	-193.01283	47.84485	1429.43774	-47.24858	13.26171	1135.01807	-53.65227	177.12566	947.20886	59.9617	173.08162	953.25134	-167.39363	-3.41016	955.19641	-2.15355	-4.65662	954.13007	-100.2404	108.03964	868.9585	-219.05687	107.61043	857.96271	117.41603	63.02563	467.00922	-84.83797	65.70784	471.42343	-16.27809	57.37398	90.92599	-207.15987	55.91612	87.35802	108.59941	73.32361	98.73799	-121.45702	80.53441	92.84331	24.91127	-14.75799	59.81386	-159.3549	-15.87234	62.95246	60.16879	168.31128	30.75502	-243.6819	165.76398	40.96918	157.66011	212.94005	65.06004	-176.06606	214.53099	65.31474	91.04686	59.42249	1295.43811	346.23901	89.81949	1308.17188	591.32507	55.534	1243.51538	585.19043	53.69662	1296.48877	666.03998	41.23709	1300.81323	-436.60553	35.12246	1261.25879	-685.79022	67.51538	1322.85925	-680.02838	28.82733	1317.4823	-759.2757	175.94078	717.72937	116.78894	165.38507	719.19696	-218.78056	77.81274	485.22986	-210.22279	88.68297	479.04654	108.30736	55.30927	268.92224	125.38273	54.68712	182.69209	114.3233	108.13835	232.8161	64.56537	65.618	278.83884	-226.1931	62.33133	193.83705	-217.06572	71.82849	1607.94226	-129.49074	176.24532	1625.86523	37.49277	184.71043	1634.60144	-110.04295	61.51224	1393.21179	-293.42926	24.0346	1305.7196	-584.8891	43.14935	1291.73901	430.21771
298	0.99	187.69099	1374.76257	-48.45894	87.12566	1424.47534	88.6593	85.32851	1432.85889	-193.01003	47.83122	1429.42676	-47.2354	13.26145	1135.03162	-53.64961	177.04906	947.23279	60.02359	173.0793	953.2439	-167.338	-3.46619	955.21735	-2.15179	-4.6805	954.1264	-100.24193	107.97849	868.96313	-219.1028	107.5563	857.98419	117.42174	63.0464	466.99762	-84.81004	65.70282	471.43335	-16.30565	57.34132	90.9414	-207.18874	55.91606	87.33801	108.60754	73.25671	98.77662	-121.41914	80.51196	92.82962	24.9041	-14.71992	59.81724	-159.35124	-15.88673	62.93377	60.16757	168.30508	30.78006	-243.67595	165.75334	40.98557	157.66412	212.93901	65.05475	-176.06749	214.49809	65.32721	91.03415	59.38098	1295.45679	346.22034	89.74187	1308.17871	591.32001	55.49792	1243.54675	585.20367	53.65437	1296.48328	666.04218	41.23462	1300.81262	-436.60394	35.09035	1261.24377	-685.77661	67.49155	1322.83301	-680.03674	28.80422	1317.4397	-759.24744	175.88588	717.75549	116.80392	165.34755	719.21844	-218.77962	77.79083	485.24918	-210.22325	88.67207	479.06113	108.31117	55.26176	268.93695	125.38339	54.68347	182.69829	114.32596	108.12675	232.86008	64.57449	65.54366	278.84601	-226.23409	62.3299	193.86714	-217.06349	71.76973	1607.92944	-129.46355	176.22212	1625.88477	37.49162	184.65721	1634.62195	-110.04359	61.411	1393.19202	-293.40985	23.99467	1305.724	-584.88727	43.13986	1291.73608	430.19626
